<svg version="1.2" xmlns="http://www.w3.org/2000/svg" viewBox="0 0 926 299" width="926" height="299">
	<title>Logo_Holis by SCGP_SCGP Endorsement_CS5_cre-ai</title>
	<style>
		tspan { white-space:pre } 
		.s0 { fill: #1a1a1a } 
		.s1 { fill: #b3b3b3 } 
		.s2 { fill: #757b7f } 
	</style>
	<g id="Layer 1">
	</g>
	<g id="Layer 3">
		<g id="&lt;Group&gt;">
			<g id="&lt;Group&gt;">
				<path id="&lt;Path&gt;" class="s0" d="m216.7 198.2q0-1.7-0.8-1.7-10.9 0-15.9-1.4-4.9-1.5-6.8-5.6-1.8-4.1-1.8-12.7v-131.9q0-8.5 1.8-12.5 1.9-4 6.8-5.6 5-1.5 15.9-1.5 0.8 0 0.8-1.7 0-1.7-0.8-1.7l-14.3 0.3q-12.5 0.5-20.2 0.5-9.4 0-21.9-0.5l-13.4-0.3q-0.9 0-0.9 1.7 0 1.7 0.9 1.7 10.8 0 15.9 1.7 5.1 1.7 7 5.8 1.8 4.2 1.8 12.7v58.7h-106.2v-58.7q0-8.5 1.9-12.7 1.8-4.1 6.9-5.8 5.2-1.7 16-1.7 0.5 0 0.6-1.7-0.1-1.7-0.6-1.7l-14 0.3q-13.1 0.5-21.6 0.5-7.7 0-19.7-0.5l-14.5-0.3q-0.6 0-0.6 1.7 0 1.7 0.6 1.7 10.5 0 15.5 1.5 5 1.6 6.9 5.6 1.8 4 1.8 12.5v131.9q0 8.6-1.8 12.7-1.9 4.1-6.9 5.6-5 1.4-15.8 1.4-0.6 0-0.6 1.7 0 1.7 0.6 1.7 9.4 0 14.5-0.3l20-0.3 21.3 0.3q5.2 0.3 14.3 0.3 0.5 0 0.6-1.7-0.1-1.7-0.6-1.7-11.1 0-16.1-1.4-5-1.5-6.8-5.6-1.9-4.1-1.9-12.7v-66.3h16.5 89.7v66.3q0 8.6-1.8 12.7-1.9 4.1-6.8 5.6-5 1.4-16.1 1.4-0.9 0-0.9 1.7 0 1.7 0.9 1.7 8.5 0 13.4-0.3l21.9-0.3 20.2 0.3q5.1 0.3 14.3 0.3 0.8 0 0.8-1.7z"/>
				<path id="&lt;Path&gt;" class="s0" d="m632.4 155.2q0-0.9-1.5-1-0.3 0-0.5 0-1.1 0-1.1 0.7-3.4 17.9-14.4 28.3-11 10.4-28.1 10.4h-27.3q-9.7 0-14.1-1.2-4.4-1.3-6-5-1.5-3.7-1.5-11.7v-130.5q0-8.5 1.7-12.7 1.7-4.1 6.7-5.7 4.9-1.5 15.2-1.5 0.6 0 0.6-1.7 0-1.7-0.6-1.7l-14 0.3q-11.9 0.5-20.2 0.5-7.7 0-19.6-0.5l-14.3-0.3q-0.6 0-0.6 1.7 0 1.7 0.6 1.7 10.5 0 15.4 1.5 4.8 1.6 6.5 5.6 1.8 4 1.8 12.5v131.9q0 8.6-1.8 12.7-1.7 4.1-6.5 5.6-4.9 1.4-15.4 1.4-0.6 0-0.6 1.7 0 1.7 0.6 1.7h132.2q2.6 0 3.4-1 0.9-1 0.9-3.3 0-16.2 2.5-40.4z"/>
				<path id="&lt;Path&gt;" class="s0" d="m739.2 25.3q0.6 0 0.6-1.7 0-1.7-0.6-1.7l-13.6 0.3q-12.6 0.5-20.8 0.5-7.7 0-19.7-0.5l-14.5-0.3q-0.9 0-0.9 1.7 0 1.7 0.9 1.7 10.5 0 15.4 1.5 4.8 1.6 6.7 5.6 1.8 4 1.8 12.5v131.9q0 8.6-1.8 12.7-1.9 4.1-6.7 5.6-4.9 1.4-15.4 1.4-0.9 0-0.9 1.7 0 1.7 0.9 1.7 9.1 0 14.5-0.3l19.7-0.3 20.5 0.3q5.1 0.3 13.9 0.3 0.6 0 0.6-1.7 0-1.7-0.6-1.7-10.5 0-15.3-1.4-4.9-1.5-6.6-5.5-1.7-3.9-1.7-12.8v-131.3q0-8.5 1.7-12.7 1.7-4.1 6.7-5.8 5-1.7 15.2-1.7z"/>
				<path id="&lt;Path&gt;" class="s0" d="m872.3 196.9q13.4-6.4 20.3-17.5 7-11.1 7-25.1 0-12.8-5.8-22.2-5.9-9.4-14.1-15.7-8.3-6.2-22.8-15.1-14-8.2-21.7-13.9-7.7-5.7-13.1-14-5.4-8.2-5.4-19.1 0-13.3 7.9-22.2 7.8-8.8 22.9-8.8 18.8 0 28.8 13.4 9.9 13.4 12.8 28.5 0.2 0.9 1.2 0.9 0.3 0 0.6-0.1 1.6-0.3 1.6-1.4l-1.7-34.2q0-3.1-4.3-5.1-16.2-6.6-33.9-6.6-13.9 0-26.5 5-12.5 5-20.2 15.1-7.7 10.1-7.7 24.7 0 12.2 5.4 21.2 5.4 9 13.1 14.8 7.7 5.8 21.7 14.7 13.9 8.2 22 14.6 8.2 6.4 13.9 15.7 5.7 9.3 5.7 22.1 0 16.8-9.4 24.2-9.4 7.4-23.4 7.4-20.2 0-32.5-15-12.2-14.9-17.9-36-0.3-0.9-1.3-0.9-0.3 0-0.6 0-1.5 0.3-1.3 1.5l3.2 39.8q0.3 2.3 0.8 3.5 0.6 1.1 2 2 18 10.2 41 10.2 18.3 0 31.7-6.4z"/>
				<path id="&lt;Path&gt;" class="s0" d="m391.6 191.3c-0.9 0.3-1.8 0.5-2.6 0.8-0.9 0.2-1.8 0.5-2.7 0.7-1.7 0.4-3.5 0.9-5.3 1.2l-2.6 0.5-2.7 0.3c-1.8 0.3-3.6 0.4-5.4 0.6-0.9 0.1-1.8 0.1-2.7 0.1l-2.7 0.1q-0.4 0-0.9 0c-6.9 0-13.7-0.7-20.4-2.2-0.9-0.2-1.7-0.4-2.6-0.7-0.8-0.2-1.7-0.4-2.6-0.6l-2.5-0.9-1.3-0.4-1.2-0.4-2.5-0.9c-0.8-0.4-1.6-0.7-2.5-1.1-1.6-0.6-3.2-1.4-4.8-2.2-0.8-0.3-1.5-0.8-2.3-1.2-0.8-0.5-1.6-0.8-2.3-1.3-1.5-0.9-3.1-1.8-4.5-2.8l-2.2-1.5-2.1-1.6-1.1-0.7q-0.5-0.5-1-0.9l-2.1-1.6c-2.6-2.4-5.2-4.8-7.6-7.4-2.4-2.5-4.5-5.3-6.6-8.1l-1.5-2.1-0.8-1.1-0.7-1.1-1.4-2.3-1.3-2.2c-0.9-1.5-1.6-3.1-2.4-4.7-0.4-0.8-0.7-1.6-1.1-2.4-0.3-0.8-0.7-1.6-1-2.4-0.6-1.6-1.3-3.2-1.8-4.9l-0.8-2.5-0.7-2.5c-0.5-1.7-0.9-3.4-1.3-5.1-0.2-0.8-0.3-1.7-0.4-2.6-0.2-0.8-0.4-1.7-0.5-2.5-1-6.9-1.1-14-0.5-20.9 0.6-7 2.1-13.9 4.4-20.5 2.2-6.6 5.3-12.9 9-18.9 3.7-6 8.2-11.5 13.2-16.5 2.6-2.5 5.2-4.9 8.1-7 1.3-1.2 2.8-2.2 4.3-3.2 0.7-0.6 1.5-1 2.2-1.5 0.8-0.5 1.5-1 2.3-1.5 6.1-3.7 12.7-6.8 19.7-9.1 6.9-2.3 14.2-3.8 21.6-4.6 0.2 0 0.3-0.1 0.3-0.3 0-0.2-0.1-0.3-0.3-0.3q-4.1-0.4-8.2-0.4c-4.8 0-9.7 0.4-14.5 1.2-1 0.1-1.9 0.4-2.9 0.6-0.9 0.2-1.8 0.4-2.8 0.6l-2.8 0.8q-0.7 0.1-1.4 0.3l-1.4 0.5-2.7 0.9-2.7 1c-1.9 0.7-3.6 1.5-5.4 2.3-7.1 3.3-13.7 7.6-19.7 12.7-6 5.1-11.4 10.9-16 17.4-1.1 1.7-2.3 3.3-3.3 5l-1.5 2.5-1.4 2.7-0.7 1.3q-0.3 0.6-0.7 1.3l-1.2 2.7c-0.5 0.9-0.8 1.8-1.2 2.8-0.4 0.9-0.8 1.8-1.1 2.7-2.7 7.5-4.6 15.3-5.4 23.3-0.8 7.9-0.6 16 0.6 23.9 1.2 7.9 3.4 15.6 6.5 22.9 3.1 7.4 7.2 14.3 12 20.6 4.8 6.3 10.4 12.1 16.6 17 6.3 4.9 13 9.1 20.3 12.3 7.2 3.1 14.8 5.5 22.5 6.7 5.2 0.9 10.4 1.3 15.6 1.3q3.9 0 7.8-0.3l2.9-0.3c0.9-0.1 1.9-0.2 2.9-0.4 1.9-0.3 3.8-0.6 5.7-1l2.8-0.7 2.8-0.7c1.9-0.5 3.7-1.2 5.6-1.8 7.2-2.5 14.1-6.1 20.5-10.3 6.3-4.3 12-9.4 16.9-15.1 0.1-0.1 0.1-0.2 0-0.4q-0.1-0.1-0.2-0.1-0.1 0-0.2 0.1c-5.7 4.9-11.8 9.1-18.3 12.6l-2.4 1.3q-0.7 0.3-1.3 0.6l-1.2 0.5-2.5 1.1-2.6 1.1c-1.7 0.7-3.4 1.2-5.1 1.8z"/>
				<path id="&lt;Path&gt;" class="s0" d="m312 156.5c6.1 6.6 13.6 12 21.9 15.6 4.2 1.8 8.5 3.2 13 4.2 4.4 0.9 9 1.3 13.5 1.3 4.6 0 9.1-0.4 13.6-1.3 4.5-1 8.8-2.4 13-4.2 8.3-3.6 15.8-9 21.9-15.6 6.1-6.6 10.8-14.4 13.6-22.7 2.8-8.4 3.8-17.3 2.7-25.7 0-0.2-0.1-0.3-0.2-0.3q-0.1 0-0.1 0c-0.1 0-0.3 0.1-0.3 0.3q-0.8 6.3-2.5 12.2-1.8 6-4.5 11.4c-3.7 7.3-8.6 13.7-14.5 19.1-2.9 2.6-6 5-9.4 7.1-3.3 2-6.8 3.8-10.4 5.2-3.7 1.4-7.4 2.5-11.3 3.2-3.7 0.7-7.5 1.1-11.3 1.1q-0.1 0-0.3 0-0.1 0-0.2 0-5.7 0-11.4-1.1c-3.8-0.7-7.5-1.8-11.2-3.2-3.6-1.4-7.1-3.2-10.4-5.2-3.4-2.1-6.5-4.5-9.5-7.1-5.8-5.4-10.7-11.8-14.4-19.1q-2.7-5.4-4.5-11.4-1.7-5.9-2.5-12.2c0-0.2-0.1-0.3-0.3-0.3q0 0 0 0c-0.2 0-0.3 0.1-0.3 0.3-1.1 8.4-0.1 17.3 2.7 25.7 2.8 8.3 7.5 16.1 13.6 22.7z"/>
				<path id="&lt;Path&gt;" class="s0" d="m400.6 124.3c1.2-2.5 2-5.2 2.7-7.9 0.5-2.7 0.8-5.5 0.9-8.3-0.1-2.8-0.3-5.6-0.9-8.3-0.6-2.7-1.4-5.4-2.6-7.9-2.3-5.1-5.6-9.7-9.7-13.3-4.1-3.6-8.9-6.2-14-7.7-3.1-0.9-6.3-1.4-9.4-1.4q-3.1 0-6 0.7c-0.2 0-0.3 0.1-0.3 0.2 0 0.2 0.1 0.3 0.3 0.4 4.8 1 9.3 2.7 13.3 5 4 2.3 7.5 5.2 10.3 8.6 5.7 6.7 8.8 15.2 8.7 23.7 0 8.5-3.1 16.9-8.8 23.6-2.9 3.4-6.3 6.3-10.3 8.6-4 2.3-8.5 3.9-13.4 5-0.1 0-0.2 0.1-0.2 0.2-0.1 0.2 0 0.3 0.2 0.4q3 0.6 6.2 0.6c3 0 6.2-0.4 9.2-1.3 5.1-1.4 9.9-4.1 14.1-7.7 4.1-3.6 7.4-8.1 9.7-13.2z"/>
				<path id="&lt;Path&gt;" class="s1" d="m69 176.8c0 6.3 0.8 9.4 1.5 10.9 0.4 1 1.3 2.3 4 3.1 1.6 0.4 4.6 1 10 1.2q-1-1.1-1.6-2.5-1.8-4.1-1.8-12.7v-61.9h-12.1z"/>
				<path id="&lt;Path&gt;" class="s1" d="m70.5 34.6c-0.7 1.5-1.5 4.6-1.5 10.9v54.3h12.1v-54.3q0-8.5 1.8-12.7 0.8-1.7 2.2-3c-5.6 0.2-8.6 0.8-10.3 1.4-2.9 1-3.9 2.4-4.3 3.4z"/>
				<path id="&lt;Path&gt;" class="s1" d="m197.2 34.3c-0.6 1.4-1.4 4.4-1.4 10.6v131.9c0 6.3 0.8 9.4 1.5 10.9 0.4 1 1.3 2.3 4 3.1 1.6 0.5 4.5 1 10 1.2q-1-1.1-1.6-2.5-1.9-4.1-1.9-12.7v-131.9q0-8.5 1.9-12.5 0.7-1.5 1.8-2.6c-5.5 0.2-8.5 0.8-10.1 1.3-2.8 0.9-3.7 2.2-4.2 3.2z"/>
				<path id="&lt;Path&gt;" class="s1" d="m220.8 25.9q1.2-0.1 2.6-0.3h-2.5q-0.1 0.2-0.1 0.3z"/>
				<path id="&lt;Path&gt;" class="s1" d="m221.2 195.9q-0.2 0-0.4 0 0 0 0 0z"/>
				<path id="&lt;Path&gt;" class="s1" d="m647.3 154.2q-1.6-0.2-1.6 0.7-2.8 14.9-10.9 24.6-0.5 8.9-0.5 16.1 0 2.5-0.8 4.3h8.5q2.6 0 3.5-1 0.8-1 0.8-3.3 0-16.2 2.6-40.4 0-0.9-1.6-1z"/>
				<path id="&lt;Path&gt;" class="s1" d="m547.6 31.1c-2.7 0.8-3.6 2.2-3.9 3.1-0.7 1.6-1.4 4.7-1.4 11v130.5c0 5.8 0.6 8.6 1.2 9.9 0.3 0.9 1 1.9 3.1 2.5 1.6 0.4 4.6 1 10.3 1.1q-0.6-0.8-1-1.8-1.6-3.7-1.6-11.7v-130.5q0-8.5 1.7-12.7 0.6-1.3 1.4-2.3v-0.4c-5.3 0.2-8.2 0.8-9.8 1.3z"/>
				<path id="&lt;Path&gt;" class="s1" d="m721.4 34.5c-0.6 1.5-1.4 4.7-1.4 11v131.3c0 6.6 0.8 9.7 1.4 11.1 0.4 1 1.2 2.2 3.7 2.9 1.6 0.5 4.6 1 10.1 1.2q-0.9-1-1.4-2.4-1.7-3.9-1.7-12.8v-131.3q0-8.5 1.7-12.7 0.7-1.7 2-3c-5.6 0.2-8.7 0.8-10.4 1.4-2.7 0.9-3.6 2.3-4 3.3z"/>
				<path id="&lt;Path&gt;" class="s1" d="m888.4 21.3c5.5 2.6 6.8 6.3 6.8 9l0.6 10.8q7.3 11.4 9.7 24.1 0.3 1.1 1.9 0.8 1.5-0.3 1.5-1.4l-1.7-34.2q0-3.1-4.2-5.1-8.4-3.4-17.2-5 1.2 0.4 2.4 0.9 0.1 0 0.2 0.1z"/>
				<path id="&lt;Path&gt;" class="s1" d="m843.8 193.6q-7.1-3.7-12.6-10.4-12.3-14.9-18-36-0.3-1.1-1.8-0.9-1.6 0.3-1.3 1.5l1.9 24q2.8 4.6 6.2 8.6c6.6 8.1 15 12.5 25.6 13.2z"/>
				<path id="&lt;Path&gt;" class="s1" d="m910.2 132.1q-5.8-9.4-14.1-15.7-8.2-6.2-22.8-15.1-13.9-8.2-21.6-13.9-7.7-5.7-13.1-14-5.4-8.2-5.4-19.1 0-13.3 7.8-22.2 2.3-2.5 5.2-4.4c-8.2 0.3-14.2 2.7-18.3 7.4-4.6 5.1-6.7 11.4-6.7 19.2 0 6.4 1.5 11.9 4.6 16.7 3.3 5 7.4 9.3 12.1 12.8 4.9 3.7 12.1 8.3 21.2 13.7q0.1 0 0.1 0.1c9.7 5.9 17.5 11 23.2 15.3 5.9 4.5 11 10.2 15.1 16.9 4.4 6.9 6.5 15.2 6.5 24.5 0 10.1-2.5 19.4-7.6 27.4-5.1 8.1-12.6 14.6-22.2 19.2q-1.5 0.7-3.1 1.3 9.7-1.5 17.6-5.3 13.4-6.4 20.4-17.5 7-11.1 7-25.1 0-12.8-5.9-22.2z"/>
				<path id="&lt;Path&gt;" class="s1" d="m291.3 107.5q0.1-0.8 0.4-1.5 0.1-3.1 0.3-6.2c0.7-7 2.2-13.9 4.4-20.5 2.2-6.6 5.3-12.9 9-18.9 3.8-6 8.2-11.5 13.3-16.5 2.5-2.5 5.2-4.9 8-7 1.4-1.2 2.9-2.2 4.3-3.2 0.7-0.6 1.5-1 2.3-1.5 0.7-0.5 1.5-1 2.2-1.5 5.2-3.1 10.7-5.8 16.5-7.9q-6.1 1.2-11.8 3c-6.5 2.2-12.8 5.1-18.8 8.7q-0.1 0-0.1 0.1-0.5 0.3-1.1 0.7-0.5 0.3-1 0.6-0.4 0.3-0.8 0.5-0.7 0.4-1.2 0.8 0 0 0 0-0.6 0.5-1.2 0.9c-1 0.7-2 1.4-2.9 2.2q-0.1 0-0.2 0.1c-2.7 2.1-5.2 4.4-7.6 6.7-4.8 4.7-9 10-12.6 15.6-3.8 6.2-6.6 12.1-8.6 18-2.1 6.3-3.5 12.9-4.1 19.5-0.6 6.7-0.4 13.4 0.5 19.8q0 0.1 0 0.1 0.1 0.7 0.2 1.4 0.1 0.5 0.2 1 0.1 0.5 0.2 0.9 0.1 0.8 0.2 1.4 0.2 0.8 0.4 1.7c0.3 1.1 0.5 2.1 0.8 3.1q0 0.1 0 0.1l0.7 2.4 0.8 2.4q0 0.1 0 0.1c0.3 1 0.7 2 1.1 3.1q0.3 0.8 0.6 1.6 0.3 0.6 0.6 1.2 0.2 0.5 0.4 0.9 0.2 0.5 0.4 0.9 0.3 0.7 0.5 1.2 0 0.1 0.1 0.1 0.3 0.7 0.6 1.4c0.6 1 1.1 2.1 1.6 3q0.1 0 0.1 0.1l1.2 2.2 1.4 2.1 0.6 1.1 0.7 1 1.5 2c1.8 2.4 3.9 5.2 6.3 7.7q0 0 0 0.1c2 2.1 4.3 4.3 7.2 6.9l2 1.6q0.2 0.1 0.4 0.3 0.2 0.2 0.5 0.4l1 0.8 2 1.5 2.1 1.4q0.1 0 0.1 0.1c0.9 0.6 1.8 1.1 2.8 1.7q0.7 0.5 1.5 0.9 0.6 0.4 1.2 0.7 0.5 0.2 0.9 0.5 0.4 0.2 0.8 0.4 0.7 0.4 1.2 0.7 0.1 0 0.1 0 0.6 0.3 1.3 0.6c1.1 0.6 2.2 1.1 3.3 1.5q0 0 0 0 0.5 0.2 1 0.4 0.7 0.3 1.4 0.6l2.4 0.9 1.2 0.5 1.1 0.3 2.6 0.8q0.6 0.2 1.4 0.4 0.5 0.1 0.9 0.3 0.5 0.1 1 0.2c0.5 0.1 0.9 0.3 1.3 0.3q0.1 0 0.2 0.1 1.8 0.4 3.7 0.7l-0.9-0.3c-0.9-0.4-1.7-0.7-2.5-1.1-1.6-0.6-3.2-1.4-4.8-2.2-0.8-0.3-1.6-0.8-2.4-1.2-0.7-0.5-1.5-0.8-2.3-1.3-1.5-0.9-3-1.8-4.5-2.8l-2.2-1.5-2.1-1.6-1-0.7q-0.6-0.5-1.1-0.9l-2-1.6c-2.7-2.4-5.2-4.8-7.6-7.4-2.4-2.5-4.6-5.3-6.7-8.1l-0.4-0.6c-6.1-6.9-10.7-14.9-13.6-23.3-3-9.1-4-18.6-2.9-27.7z"/>
				<path id="&lt;Path&gt;" class="s1" d="m391 201.7q1.2-0.2 2.3-0.4l2.8-0.7 2.8-0.7c1.9-0.5 3.7-1.2 5.5-1.8 7.3-2.5 14.2-6.1 20.5-10.3 6.3-4.3 12-9.4 17-15.1 0.1-0.1 0.1-0.2 0-0.4-0.1-0.1-0.3-0.1-0.5 0-5.6 4.9-11.7 9.1-18.2 12.6l-2.5 1.3q-0.6 0.3-1.2 0.6l-1.3 0.5-2.5 1.1-1.3 0.6q-1.7 1.3-3.5 2.5c-6.3 4.2-13 7.7-19.9 10.2z"/>
				<path id="&lt;Path&gt;" class="s1" d="m339.2 159q5.3 2.1 10.5 3 1.3 0.2 2.7 0.4-4.6-1.9-8.8-4.5c-3.3-2.1-6.5-4.5-9.4-7.1-5.9-5.4-10.8-11.8-14.4-19.1q-2.8-5.4-4.5-11.4-1.8-5.9-2.6-12.2c0-0.2-0.1-0.3-0.2-0.3-0.2 0-0.4 0.1-0.4 0.3-1 8.4 0 17.3 2.8 25.7 1.8 5.3 4.3 10.5 7.6 15.2 2.2 1.9 4.5 3.6 7 5.1 3.2 2 6.5 3.7 9.7 4.9z"/>
				<path id="&lt;Path&gt;" class="s1" d="m388.8 176.2q-0.9 0.3-1.7 0.6 1.7-0.2 3.4-0.5c4.4-1 8.8-2.4 12.9-4.2 8.4-3.6 15.9-9 22-15.6 6.1-6.6 10.7-14.4 13.5-22.7 2.8-8.4 3.8-17.3 2.8-25.7 0-0.2-0.2-0.3-0.3-0.3-0.2 0-0.3 0.1-0.3 0.3q-0.8 6.3-2.6 12.2-1.7 6-4.5 11.4c-3.6 7.3-8.5 13.7-14.4 19.1q-0.7 0.6-1.4 1.2-2.7 4-6 7.5c-6.5 7.1-14.6 12.8-23.4 16.7z"/>
				<path id="&lt;Path&gt;" class="s1" d="m417.8 119.1c1.1-3.8 1.9-7.6 2.4-11.6q0.1-0.6 0.4-1.2-0.2-3.3-0.8-6.5c-0.6-2.7-1.5-5.4-2.6-7.9-2.3-5.1-5.6-9.7-9.8-13.3-4.1-3.6-8.9-6.2-14-7.7-2.6-0.8-5.2-1.2-7.9-1.3 3 1.5 5.8 3.5 8.4 5.7 3 2.7 5.7 5.8 7.9 9.2 5.6 6.7 8.6 15.1 8.6 23.6 0 8.4-3 16.6-8.5 23.3-2.3 3.5-5 6.8-8.1 9.5-2.6 2.2-5.4 4.1-8.3 5.6 2.6-0.1 5.2-0.6 7.7-1.3 5.2-1.4 10-4.1 14.1-7.7q2.6-2.2 4.8-5 0.8-1.4 1.5-2.8c1.7-3.3 3.1-6.9 4.2-10.6z"/>
			</g>
			<g id="&lt;Group&gt;">
				<path id="&lt;Path&gt;" class="s2" d="m763.9 251.8c-7.7-2.1-10-3.7-11-5.1-1.5-2.1-0.1-7 6.1-6.9 1.8 0 3.9 0.2 6.1 1.1 0.8 0.3 1.6 0.1 2-0.6l3.3-6c0.4-0.8 0-1.9-0.8-2.2-12.8-5.6-29.7-1-30.1 12.8 0 5.1 5.4 10.8 13.9 13.7 8.6 2.9 12.7 4.4 12.7 7.9 0 2.2-2.8 4.1-7.7 4.2-5.8-0.1-11.6-2.5-14.2-3.8-0.7-0.4-1.6-0.1-2 0.6l-4.1 7.4c-0.4 0.8-0.1 1.7 0.7 2.1 7.2 4 14.9 5.1 22.3 4.7 7.1-0.8 17.5-5.3 17.5-14.7 0-10.5-9.3-13.5-14.7-15.2z"/>
				<path id="&lt;Compound Path&gt;" fill-rule="evenodd" class="s2" d="m917.8 247.9c0 9.5-7.8 17.3-17.3 17.3h-10.1c-0.5 0-1 0.4-1 1v12.6c0 1.2-0.9 2.2-2.1 2.2h-6.7c-1.2 0-2.2-1-2.2-2.2v-8.8-37.3c0-1.2 1-2.2 2.2-2.2h19.9c9.5 0 17.3 7.8 17.3 17.4zm-17.3-6.3h-10.1c-0.5 0-1 0.4-1 1v10.6c0 0.5 0.5 1 1 1h10.1c3.5 0 6.3-2.8 6.3-6.3 0-3.5-2.8-6.3-6.3-6.3z"/>
				<path id="&lt;Path&gt;" class="s2" d="m819.2 267.2c-0.5-0.6-1.4-0.7-2.1-0.2-1.8 1.2-3.9 2.3-6.2 3-4.2 1.4-8.4 0.8-11.8-1-13.9-7.6-8.4-28.6 7.7-28.2 2.4 0 4.8 0.5 6.8 1.2 0.8 0.3 1.6-0.1 2-0.8l3.3-7.4q0.1-0.1 0.1-0.1c0.3-0.8-0.1-1.7-0.9-2-3.2-1.1-7-1.9-11.3-1.9-16.3-0.5-29 14.2-26.3 30.3 1.5 8.6 6.8 15.1 13.5 18.6 4.4 2.3 9.4 3.4 14.6 3q2.9-0.3 5.7-1.2c4-1.2 7.3-3 9.9-4.8 0.7-0.5 0.8-1.5 0.4-2.2-1.2-1.4-4.2-4.8-5.4-6.3z"/>
				<path id="&lt;Path&gt;" class="s2" d="m874.3 255.7l-17.1-7.5c-0.8-0.3-1.7 0-2.1 0.8l-3.5 7.6c-0.3 0.8 0 1.8 0.8 2.1l10 4.4-0.1 0.1c-3.8 6.7-12.1 9.4-19.2 6.2-14.9-7.2-9.5-29 6.9-28.6 2.4 0 4.7 0.5 6.8 1.2 0.8 0.3 1.6-0.1 1.9-0.8l3.4-7.4q0.1-0.1 0.1-0.1c0.3-0.8-0.1-1.7-1-2-3.1-1.1-6.9-1.9-11.2-1.9-16.3-0.5-29 14.2-26.3 30.3 3.6 20.3 27.9 28.7 43.1 14.9 2.4-2.1 4.3-4.7 5.8-7.5 1.5-3.2 2.5-6.6 2.7-10.3 0-0.7-0.4-1.3-1-1.5z"/>
				<g id="&lt;Group&gt;">
					<path id="&lt;Compound Path&gt;" fill-rule="evenodd" class="s2" d="m661 281v-36.5h4.3v15.2h0.1q1.4-1.8 3.7-3.2 2.3-1.4 5.7-1.4 5.4 0 8.1 3.5 2.8 3.6 2.8 9.5 0 3.4-0.9 6-0.8 2.5-2.3 4.2-1.5 1.7-3.5 2.5-2 0.8-4.3 0.8-3.4 0-5.8-1.4-2.5-1.4-3.9-3.6h-0.1l-0.4 4.4zm4.2-7.7q1.2 1.9 3.5 3.5 2.3 1.5 5.3 1.5 1.5 0 2.9-0.6 1.3-0.6 2.3-1.8 1-1.3 1.6-3.2 0.6-1.9 0.6-4.6 0-2-0.4-3.8-0.4-1.8-1.4-3.1-0.9-1.3-2.3-2-1.5-0.8-3.5-0.8-2.8 0-4.9 1.4-2.1 1.3-3.7 3.4z"/>
					<path id="&lt;Compound Path&gt;" class="s2" d="m698.9 281l-11.1-25.3h4.2l6 14.3 2.8 7.2h0.1l3-8 5.4-13.5h4.4l-13.3 31.2q-0.7 1.6-1.4 2.8-0.7 1.3-1.6 2.2-0.8 0.8-2 1.3-1.1 0.4-2.7 0.4-1.3 0-2.4-0.3-1-0.3-1.8-0.6v-3.4q0.7 0.3 1.6 0.7 1 0.4 2.3 0.4 1.6 0 2.6-1 1-1.1 1.8-3.2z"/>
				</g>
			</g>
		</g>
	</g>
</svg>